<svg xmlns="http://www.w3.org/2000/svg" xmlns:xlink="http://www.w3.org/1999/xlink" width="128" zoomAndPan="magnify" viewBox="0 0 96 95.999999" height="128" preserveAspectRatio="xMidYMid meet" version="1.0"><defs><g/><clipPath id="0412360081"><path d="M 18.75 0 L 77.25 0 C 87.605469 0 96 8.394531 96 18.75 L 96 77.25 C 96 87.605469 87.605469 96 77.25 96 L 18.75 96 C 8.394531 96 0 87.605469 0 77.25 L 0 18.75 C 0 8.394531 8.394531 0 18.75 0 Z M 18.75 0 " clip-rule="nonzero"/></clipPath><linearGradient x1="0" gradientTransform="matrix(0.375, 0, 0, 0.375, 0.0000005, 0.000002)" y1="-0" x2="0" gradientUnits="userSpaceOnUse" y2="255.999989" id="91335d4dbd"><stop stop-opacity="1" stop-color="rgb(16.499329%, 55.299377%, 97.299194%)" offset="0"/><stop stop-opacity="1" stop-color="rgb(16.433716%, 55.197144%, 97.245789%)" offset="0.0078125"/><stop stop-opacity="1" stop-color="rgb(16.305542%, 54.995728%, 97.142029%)" offset="0.015625"/><stop stop-opacity="1" stop-color="rgb(16.177368%, 54.792786%, 97.036743%)" offset="0.0234375"/><stop stop-opacity="1" stop-color="rgb(16.047668%, 54.589844%, 96.932983%)" offset="0.03125"/><stop stop-opacity="1" stop-color="rgb(15.919495%, 54.388428%, 96.827698%)" offset="0.0390625"/><stop stop-opacity="1" stop-color="rgb(15.789795%, 54.185486%, 96.722412%)" offset="0.046875"/><stop stop-opacity="1" stop-color="rgb(15.661621%, 53.98407%, 96.618652%)" offset="0.0546875"/><stop stop-opacity="1" stop-color="rgb(15.531921%, 53.781128%, 96.513367%)" offset="0.0625"/><stop stop-opacity="1" stop-color="rgb(15.403748%, 53.578186%, 96.409607%)" offset="0.0703125"/><stop stop-opacity="1" stop-color="rgb(15.274048%, 53.37677%, 96.304321%)" offset="0.078125"/><stop stop-opacity="1" stop-color="rgb(15.145874%, 53.173828%, 96.199036%)" offset="0.0859375"/><stop stop-opacity="1" stop-color="rgb(15.016174%, 52.972412%, 96.095276%)" offset="0.09375"/><stop stop-opacity="1" stop-color="rgb(14.888%, 52.76947%, 95.98999%)" offset="0.101562"/><stop stop-opacity="1" stop-color="rgb(14.758301%, 52.566528%, 95.88623%)" offset="0.109375"/><stop stop-opacity="1" stop-color="rgb(14.630127%, 52.365112%, 95.780945%)" offset="0.117188"/><stop stop-opacity="1" stop-color="rgb(14.500427%, 52.16217%, 95.675659%)" offset="0.125"/><stop stop-opacity="1" stop-color="rgb(14.372253%, 51.960754%, 95.571899%)" offset="0.132812"/><stop stop-opacity="1" stop-color="rgb(14.242554%, 51.757812%, 95.466614%)" offset="0.140625"/><stop stop-opacity="1" stop-color="rgb(14.11438%, 51.554871%, 95.361328%)" offset="0.148438"/><stop stop-opacity="1" stop-color="rgb(13.98468%, 51.353455%, 95.257568%)" offset="0.15625"/><stop stop-opacity="1" stop-color="rgb(13.856506%, 51.150513%, 95.152283%)" offset="0.164062"/><stop stop-opacity="1" stop-color="rgb(13.726807%, 50.949097%, 95.048523%)" offset="0.171875"/><stop stop-opacity="1" stop-color="rgb(13.598633%, 50.746155%, 94.943237%)" offset="0.179688"/><stop stop-opacity="1" stop-color="rgb(13.468933%, 50.543213%, 94.837952%)" offset="0.1875"/><stop stop-opacity="1" stop-color="rgb(13.340759%, 50.341797%, 94.734192%)" offset="0.195312"/><stop stop-opacity="1" stop-color="rgb(13.21106%, 50.138855%, 94.628906%)" offset="0.203125"/><stop stop-opacity="1" stop-color="rgb(13.082886%, 49.935913%, 94.525146%)" offset="0.210938"/><stop stop-opacity="1" stop-color="rgb(12.954712%, 49.734497%, 94.419861%)" offset="0.21875"/><stop stop-opacity="1" stop-color="rgb(12.825012%, 49.531555%, 94.314575%)" offset="0.226562"/><stop stop-opacity="1" stop-color="rgb(12.696838%, 49.330139%, 94.210815%)" offset="0.234375"/><stop stop-opacity="1" stop-color="rgb(12.567139%, 49.127197%, 94.10553%)" offset="0.242188"/><stop stop-opacity="1" stop-color="rgb(12.438965%, 48.924255%, 94.00177%)" offset="0.25"/><stop stop-opacity="1" stop-color="rgb(12.309265%, 48.722839%, 93.896484%)" offset="0.257812"/><stop stop-opacity="1" stop-color="rgb(12.181091%, 48.519897%, 93.791199%)" offset="0.265625"/><stop stop-opacity="1" stop-color="rgb(12.051392%, 48.318481%, 93.687439%)" offset="0.273438"/><stop stop-opacity="1" stop-color="rgb(11.923218%, 48.11554%, 93.582153%)" offset="0.28125"/><stop stop-opacity="1" stop-color="rgb(11.793518%, 47.912598%, 93.478394%)" offset="0.289062"/><stop stop-opacity="1" stop-color="rgb(11.665344%, 47.711182%, 93.373108%)" offset="0.296875"/><stop stop-opacity="1" stop-color="rgb(11.535645%, 47.50824%, 93.267822%)" offset="0.304688"/><stop stop-opacity="1" stop-color="rgb(11.407471%, 47.306824%, 93.164062%)" offset="0.3125"/><stop stop-opacity="1" stop-color="rgb(11.277771%, 47.103882%, 93.058777%)" offset="0.320312"/><stop stop-opacity="1" stop-color="rgb(11.149597%, 46.90094%, 92.953491%)" offset="0.328125"/><stop stop-opacity="1" stop-color="rgb(11.019897%, 46.699524%, 92.849731%)" offset="0.335938"/><stop stop-opacity="1" stop-color="rgb(10.891724%, 46.496582%, 92.744446%)" offset="0.34375"/><stop stop-opacity="1" stop-color="rgb(10.762024%, 46.295166%, 92.640686%)" offset="0.351562"/><stop stop-opacity="1" stop-color="rgb(10.63385%, 46.092224%, 92.5354%)" offset="0.359375"/><stop stop-opacity="1" stop-color="rgb(10.50415%, 45.889282%, 92.430115%)" offset="0.367188"/><stop stop-opacity="1" stop-color="rgb(10.375977%, 45.687866%, 92.326355%)" offset="0.375"/><stop stop-opacity="1" stop-color="rgb(10.246277%, 45.484924%, 92.221069%)" offset="0.382812"/><stop stop-opacity="1" stop-color="rgb(10.118103%, 45.283508%, 92.11731%)" offset="0.390625"/><stop stop-opacity="1" stop-color="rgb(9.988403%, 45.080566%, 92.012024%)" offset="0.398438"/><stop stop-opacity="1" stop-color="rgb(9.860229%, 44.877625%, 91.906738%)" offset="0.40625"/><stop stop-opacity="1" stop-color="rgb(9.732056%, 44.676208%, 91.802979%)" offset="0.414062"/><stop stop-opacity="1" stop-color="rgb(9.602356%, 44.473267%, 91.697693%)" offset="0.421875"/><stop stop-opacity="1" stop-color="rgb(9.474182%, 44.270325%, 91.593933%)" offset="0.429688"/><stop stop-opacity="1" stop-color="rgb(9.344482%, 44.068909%, 91.488647%)" offset="0.4375"/><stop stop-opacity="1" stop-color="rgb(9.216309%, 43.865967%, 91.383362%)" offset="0.445312"/><stop stop-opacity="1" stop-color="rgb(9.086609%, 43.664551%, 91.279602%)" offset="0.453125"/><stop stop-opacity="1" stop-color="rgb(8.958435%, 43.461609%, 91.174316%)" offset="0.460938"/><stop stop-opacity="1" stop-color="rgb(8.828735%, 43.258667%, 91.070557%)" offset="0.46875"/><stop stop-opacity="1" stop-color="rgb(8.700562%, 43.057251%, 90.965271%)" offset="0.476562"/><stop stop-opacity="1" stop-color="rgb(8.570862%, 42.854309%, 90.859985%)" offset="0.484375"/><stop stop-opacity="1" stop-color="rgb(8.442688%, 42.652893%, 90.756226%)" offset="0.492188"/><stop stop-opacity="1" stop-color="rgb(8.312988%, 42.449951%, 90.65094%)" offset="0.5"/><stop stop-opacity="1" stop-color="rgb(8.184814%, 42.247009%, 90.54718%)" offset="0.507812"/><stop stop-opacity="1" stop-color="rgb(8.055115%, 42.045593%, 90.441895%)" offset="0.515625"/><stop stop-opacity="1" stop-color="rgb(7.926941%, 41.842651%, 90.336609%)" offset="0.523438"/><stop stop-opacity="1" stop-color="rgb(7.797241%, 41.641235%, 90.232849%)" offset="0.53125"/><stop stop-opacity="1" stop-color="rgb(7.669067%, 41.438293%, 90.127563%)" offset="0.539062"/><stop stop-opacity="1" stop-color="rgb(7.539368%, 41.235352%, 90.022278%)" offset="0.546875"/><stop stop-opacity="1" stop-color="rgb(7.411194%, 41.033936%, 89.918518%)" offset="0.554688"/><stop stop-opacity="1" stop-color="rgb(7.281494%, 40.830994%, 89.813232%)" offset="0.5625"/><stop stop-opacity="1" stop-color="rgb(7.15332%, 40.629578%, 89.709473%)" offset="0.570312"/><stop stop-opacity="1" stop-color="rgb(7.023621%, 40.426636%, 89.604187%)" offset="0.578125"/><stop stop-opacity="1" stop-color="rgb(6.895447%, 40.223694%, 89.498901%)" offset="0.585938"/><stop stop-opacity="1" stop-color="rgb(6.765747%, 40.022278%, 89.395142%)" offset="0.59375"/><stop stop-opacity="1" stop-color="rgb(6.637573%, 39.819336%, 89.289856%)" offset="0.601562"/><stop stop-opacity="1" stop-color="rgb(6.509399%, 39.616394%, 89.186096%)" offset="0.609375"/><stop stop-opacity="1" stop-color="rgb(6.3797%, 39.414978%, 89.080811%)" offset="0.617188"/><stop stop-opacity="1" stop-color="rgb(6.251526%, 39.212036%, 88.975525%)" offset="0.625"/><stop stop-opacity="1" stop-color="rgb(6.121826%, 39.01062%, 88.871765%)" offset="0.632812"/><stop stop-opacity="1" stop-color="rgb(5.993652%, 38.807678%, 88.766479%)" offset="0.640625"/><stop stop-opacity="1" stop-color="rgb(5.863953%, 38.604736%, 88.66272%)" offset="0.648438"/><stop stop-opacity="1" stop-color="rgb(5.735779%, 38.40332%, 88.557434%)" offset="0.65625"/><stop stop-opacity="1" stop-color="rgb(5.606079%, 38.200378%, 88.452148%)" offset="0.664062"/><stop stop-opacity="1" stop-color="rgb(5.477905%, 37.998962%, 88.348389%)" offset="0.671875"/><stop stop-opacity="1" stop-color="rgb(5.348206%, 37.796021%, 88.243103%)" offset="0.679688"/><stop stop-opacity="1" stop-color="rgb(5.220032%, 37.593079%, 88.139343%)" offset="0.6875"/><stop stop-opacity="1" stop-color="rgb(5.090332%, 37.391663%, 88.034058%)" offset="0.695312"/><stop stop-opacity="1" stop-color="rgb(4.962158%, 37.188721%, 87.928772%)" offset="0.703125"/><stop stop-opacity="1" stop-color="rgb(4.832458%, 36.987305%, 87.825012%)" offset="0.710938"/><stop stop-opacity="1" stop-color="rgb(4.704285%, 36.784363%, 87.719727%)" offset="0.71875"/><stop stop-opacity="1" stop-color="rgb(4.574585%, 36.581421%, 87.614441%)" offset="0.726562"/><stop stop-opacity="1" stop-color="rgb(4.446411%, 36.380005%, 87.510681%)" offset="0.734375"/><stop stop-opacity="1" stop-color="rgb(4.316711%, 36.177063%, 87.405396%)" offset="0.742188"/><stop stop-opacity="1" stop-color="rgb(4.188538%, 35.975647%, 87.301636%)" offset="0.75"/><stop stop-opacity="1" stop-color="rgb(4.058838%, 35.772705%, 87.19635%)" offset="0.757812"/><stop stop-opacity="1" stop-color="rgb(3.930664%, 35.569763%, 87.091064%)" offset="0.765625"/><stop stop-opacity="1" stop-color="rgb(3.800964%, 35.368347%, 86.987305%)" offset="0.773438"/><stop stop-opacity="1" stop-color="rgb(3.672791%, 35.165405%, 86.882019%)" offset="0.78125"/><stop stop-opacity="1" stop-color="rgb(3.543091%, 34.963989%, 86.778259%)" offset="0.789062"/><stop stop-opacity="1" stop-color="rgb(3.414917%, 34.761047%, 86.672974%)" offset="0.796875"/><stop stop-opacity="1" stop-color="rgb(3.286743%, 34.558105%, 86.567688%)" offset="0.804688"/><stop stop-opacity="1" stop-color="rgb(3.157043%, 34.356689%, 86.463928%)" offset="0.8125"/><stop stop-opacity="1" stop-color="rgb(3.02887%, 34.153748%, 86.358643%)" offset="0.820312"/><stop stop-opacity="1" stop-color="rgb(2.89917%, 33.950806%, 86.254883%)" offset="0.828125"/><stop stop-opacity="1" stop-color="rgb(2.770996%, 33.74939%, 86.149597%)" offset="0.835938"/><stop stop-opacity="1" stop-color="rgb(2.641296%, 33.546448%, 86.044312%)" offset="0.84375"/><stop stop-opacity="1" stop-color="rgb(2.513123%, 33.345032%, 85.940552%)" offset="0.851562"/><stop stop-opacity="1" stop-color="rgb(2.383423%, 33.14209%, 85.835266%)" offset="0.859375"/><stop stop-opacity="1" stop-color="rgb(2.255249%, 32.939148%, 85.731506%)" offset="0.867188"/><stop stop-opacity="1" stop-color="rgb(2.125549%, 32.737732%, 85.626221%)" offset="0.875"/><stop stop-opacity="1" stop-color="rgb(1.997375%, 32.53479%, 85.520935%)" offset="0.882812"/><stop stop-opacity="1" stop-color="rgb(1.867676%, 32.333374%, 85.417175%)" offset="0.890625"/><stop stop-opacity="1" stop-color="rgb(1.739502%, 32.130432%, 85.31189%)" offset="0.898438"/><stop stop-opacity="1" stop-color="rgb(1.609802%, 31.92749%, 85.20813%)" offset="0.90625"/><stop stop-opacity="1" stop-color="rgb(1.481628%, 31.726074%, 85.102844%)" offset="0.914062"/><stop stop-opacity="1" stop-color="rgb(1.351929%, 31.523132%, 84.997559%)" offset="0.921875"/><stop stop-opacity="1" stop-color="rgb(1.223755%, 31.321716%, 84.893799%)" offset="0.929688"/><stop stop-opacity="1" stop-color="rgb(1.094055%, 31.118774%, 84.788513%)" offset="0.9375"/><stop stop-opacity="1" stop-color="rgb(0.965881%, 30.915833%, 84.683228%)" offset="0.945312"/><stop stop-opacity="1" stop-color="rgb(0.836182%, 30.714417%, 84.579468%)" offset="0.953125"/><stop stop-opacity="1" stop-color="rgb(0.708008%, 30.511475%, 84.474182%)" offset="0.960938"/><stop stop-opacity="1" stop-color="rgb(0.578308%, 30.310059%, 84.370422%)" offset="0.96875"/><stop stop-opacity="1" stop-color="rgb(0.450134%, 30.107117%, 84.265137%)" offset="0.976562"/><stop stop-opacity="1" stop-color="rgb(0.320435%, 29.904175%, 84.159851%)" offset="0.984375"/><stop stop-opacity="1" stop-color="rgb(0.192261%, 29.702759%, 84.056091%)" offset="0.992188"/><stop stop-opacity="1" stop-color="rgb(0.0640869%, 29.499817%, 83.950806%)" offset="1"/></linearGradient><clipPath id="38a6bd0050"><path d="M 80 42 L 92 42 L 92 64 L 80 64 Z M 80 42 " clip-rule="nonzero"/></clipPath><clipPath id="77c71e4e92"><path d="M 86.777344 40.21875 L 96.808594 58.667969 L 82.972656 66.191406 L 72.941406 47.746094 Z M 86.777344 40.21875 " clip-rule="nonzero"/></clipPath><clipPath id="cd6adcc01a"><path d="M 96.835938 58.71875 L 86.804688 40.269531 L 72.96875 47.796875 L 83 66.242188 Z M 96.835938 58.71875 " clip-rule="nonzero"/></clipPath><clipPath id="84aaa491fc"><path d="M 96.835938 58.71875 L 86.804688 40.269531 L 72.96875 47.796875 L 83 66.242188 Z M 96.835938 58.71875 " clip-rule="nonzero"/></clipPath></defs><g clip-path="url(#0412360081)"><rect x="-9.6" fill="url(#91335d4dbd)" width="115.2" y="-9.6" height="115.199999"/></g><g clip-path="url(#38a6bd0050)"><g clip-path="url(#77c71e4e92)"><g clip-path="url(#cd6adcc01a)"><g clip-path="url(#84aaa491fc)"><path fill="#ffffff" d="M 84.941406 58.65625 C 85.03125 58.414062 85.117188 58.214844 85.179688 58.007812 C 85.378906 57.324219 85.609375 56.640625 85.753906 55.945312 C 85.914062 55.191406 85.394531 54.515625 84.628906 54.320312 C 84.4375 54.269531 84.285156 54.082031 84.09375 53.945312 C 83.847656 53.972656 83.863281 54.214844 83.8125 54.394531 C 83.363281 56.03125 82.597656 57.53125 81.695312 58.957031 C 81.351562 59.503906 80.902344 59.988281 80.484375 60.488281 C 80.15625 60.882812 80.109375 60.933594 80.386719 61.363281 C 80.890625 62.128906 81.546875 62.679688 82.519531 62.804688 C 84.210938 63.023438 85.890625 63.339844 87.613281 63.257812 C 87.890625 63.242188 88.171875 63.195312 88.613281 63.144531 C 88.136719 62.550781 87.847656 62.007812 87.128906 61.949219 C 86.6875 61.910156 86.25 61.867188 85.644531 61.816406 C 86.070312 61.488281 86.367188 61.265625 86.65625 61.035156 C 88.824219 59.296875 90.476562 57.164062 91.152344 54.472656 C 91.773438 52.027344 91.773438 49.546875 90.554688 47.234375 C 89.527344 45.296875 87.863281 44.058594 85.84375 43.28125 C 85.039062 42.972656 84.167969 42.808594 83.320312 42.601562 C 83.101562 42.550781 82.859375 42.585938 82.628906 42.582031 C 82.609375 42.640625 82.59375 42.703125 82.578125 42.761719 C 82.855469 42.917969 83.125 43.089844 83.414062 43.21875 C 83.59375 43.304688 83.800781 43.328125 84 43.375 C 86.53125 43.9375 88.019531 45.582031 88.71875 47.980469 C 89.253906 49.8125 89.09375 51.652344 88.488281 53.457031 C 87.847656 55.363281 86.769531 57.003906 85.332031 58.421875 C 85.269531 58.484375 85.199219 58.546875 85.128906 58.597656 C 85.097656 58.621094 85.046875 58.625 84.941406 58.65625 Z M 84.941406 58.65625 " fill-opacity="1" fill-rule="nonzero"/></g></g></g></g><g fill="#ffffff" fill-opacity="1"><g transform="translate(11.944336, 42.950002)"><g><path d="M 22.453125 -23 C 22.503906 -23.007812 22.550781 -23.015625 22.59375 -23.015625 C 22.644531 -23.023438 22.691406 -23.03125 22.734375 -23.03125 C 22.921875 -23.03125 23.070312 -22.96875 23.1875 -22.84375 C 23.300781 -22.726562 23.378906 -22.519531 23.421875 -22.21875 C 23.441406 -22.03125 23.472656 -21.765625 23.515625 -21.421875 C 23.566406 -21.085938 23.617188 -20.710938 23.671875 -20.296875 C 23.734375 -19.890625 23.796875 -19.46875 23.859375 -19.03125 C 23.929688 -18.59375 23.992188 -18.1875 24.046875 -17.8125 C 24.097656 -17.445312 24.144531 -17.128906 24.1875 -16.859375 C 24.226562 -16.597656 24.253906 -16.429688 24.265625 -16.359375 C 24.492188 -14.515625 24.695312 -13.035156 24.875 -11.921875 C 25.050781 -10.804688 25.175781 -9.984375 25.25 -9.453125 L 26.296875 -1 L 26.140625 -0.515625 C 26.117188 -0.441406 25.984375 -0.351562 25.734375 -0.25 C 25.484375 -0.144531 25.179688 -0.0351562 24.828125 0.078125 C 24.472656 0.203125 24.085938 0.320312 23.671875 0.4375 C 23.253906 0.550781 22.867188 0.65625 22.515625 0.75 C 22.160156 0.84375 21.859375 0.914062 21.609375 0.96875 C 21.367188 1.03125 21.242188 1.0625 21.234375 1.0625 C 20.984375 1.0625 20.785156 0.878906 20.640625 0.515625 C 20.492188 0.148438 20.375 -0.3125 20.28125 -0.875 C 20.1875 -1.4375 20.109375 -2.050781 20.046875 -2.71875 C 19.992188 -3.382812 19.929688 -4.023438 19.859375 -4.640625 C 19.796875 -5.148438 19.738281 -5.664062 19.6875 -6.1875 C 19.632812 -6.707031 19.578125 -7.238281 19.515625 -7.78125 L 18.90625 -12.34375 L 13.109375 -1.734375 C 12.929688 -1.484375 12.753906 -1.300781 12.578125 -1.1875 C 12.398438 -1.082031 12.234375 -1.03125 12.078125 -1.03125 C 11.847656 -1.03125 11.664062 -1.097656 11.53125 -1.234375 C 11.40625 -1.367188 11.316406 -1.535156 11.265625 -1.734375 C 11.066406 -2.390625 10.894531 -2.941406 10.75 -3.390625 C 10.613281 -3.847656 10.484375 -4.265625 10.359375 -4.640625 C 10.242188 -5.015625 10.132812 -5.378906 10.03125 -5.734375 C 9.925781 -6.085938 9.804688 -6.492188 9.671875 -6.953125 C 9.546875 -7.421875 9.398438 -7.96875 9.234375 -8.59375 C 9.078125 -9.226562 8.882812 -10.003906 8.65625 -10.921875 L 8.171875 -8.671875 L 5.921875 0.875 C 5.890625 1 5.757812 1.0625 5.53125 1.0625 C 5.3125 1.0625 5.007812 1.019531 4.625 0.9375 C 4.25 0.851562 3.851562 0.75 3.4375 0.625 C 3.03125 0.507812 2.628906 0.382812 2.234375 0.25 C 1.847656 0.125 1.539062 0.0078125 1.3125 -0.09375 C 1.257812 -0.113281 1.191406 -0.160156 1.109375 -0.234375 C 1.035156 -0.316406 1 -0.441406 1 -0.609375 C 1 -0.648438 1.015625 -0.738281 1.046875 -0.875 C 1.078125 -1.007812 1.113281 -1.164062 1.15625 -1.34375 C 1.207031 -1.53125 1.257812 -1.71875 1.3125 -1.90625 C 1.375 -2.09375 1.429688 -2.257812 1.484375 -2.40625 C 1.617188 -2.757812 1.738281 -3.175781 1.84375 -3.65625 C 1.957031 -4.132812 2.0625 -4.617188 2.15625 -5.109375 C 2.25 -5.597656 2.332031 -6.066406 2.40625 -6.515625 C 2.488281 -6.960938 2.566406 -7.335938 2.640625 -7.640625 L 4.5625 -16.609375 L 5.140625 -19.140625 C 5.210938 -19.460938 5.28125 -19.773438 5.34375 -20.078125 C 5.414062 -20.390625 5.476562 -20.671875 5.53125 -20.921875 C 5.582031 -21.171875 5.625 -21.375 5.65625 -21.53125 C 5.6875 -21.6875 5.703125 -21.773438 5.703125 -21.796875 L 9.609375 -23 C 9.753906 -23 9.878906 -22.984375 9.984375 -22.953125 C 10.097656 -22.929688 10.171875 -22.847656 10.203125 -22.703125 L 13.3125 -12.703125 L 17.578125 -21.6875 Z M 22.453125 -23 "/></g></g></g><g fill="#ffffff" fill-opacity="1"><g transform="translate(38.953364, 42.950002)"><g><path d="M 21.890625 -16.234375 C 21.878906 -15.335938 21.789062 -14.535156 21.625 -13.828125 C 21.46875 -13.117188 21.238281 -12.476562 20.9375 -11.90625 C 20.644531 -11.34375 20.285156 -10.832031 19.859375 -10.375 C 19.441406 -9.925781 18.960938 -9.503906 18.421875 -9.109375 C 17.378906 -8.359375 16.238281 -7.789062 15 -7.40625 C 13.757812 -7.03125 12.515625 -6.84375 11.265625 -6.84375 C 11.054688 -6.84375 10.847656 -6.847656 10.640625 -6.859375 C 10.441406 -6.867188 10.238281 -6.882812 10.03125 -6.90625 L 9.515625 -1.203125 L 9.25 -0.71875 C 9.226562 -0.675781 9.050781 -0.59375 8.71875 -0.46875 C 8.382812 -0.34375 7.96875 -0.195312 7.46875 -0.03125 L 6.484375 0.296875 C 6.171875 0.410156 5.894531 0.515625 5.65625 0.609375 C 5.414062 0.703125 5.191406 0.785156 4.984375 0.859375 C 4.773438 0.929688 4.570312 0.984375 4.375 1.015625 C 4.175781 1.054688 3.96875 1.078125 3.75 1.078125 C 3.601562 1.078125 3.488281 1.039062 3.40625 0.96875 C 3.320312 0.894531 3.28125 0.753906 3.28125 0.546875 L 3.453125 -2.125 C 3.484375 -2.65625 3.519531 -3.1875 3.5625 -3.71875 C 3.613281 -4.257812 3.660156 -4.875 3.703125 -5.5625 L 4 -9.296875 C 4.0625 -10.054688 4.117188 -10.816406 4.171875 -11.578125 C 4.222656 -12.335938 4.273438 -13.0625 4.328125 -13.75 C 4.378906 -14.4375 4.425781 -15.078125 4.46875 -15.671875 C 4.507812 -16.273438 4.546875 -16.800781 4.578125 -17.25 C 4.015625 -17.125 3.5625 -17.03125 3.21875 -16.96875 C 2.882812 -16.914062 2.628906 -16.890625 2.453125 -16.890625 C 2.234375 -16.890625 2.125 -16.984375 2.125 -17.171875 C 2.269531 -17.679688 2.40625 -18.179688 2.53125 -18.671875 C 2.644531 -19.085938 2.757812 -19.515625 2.875 -19.953125 C 3 -20.398438 3.101562 -20.773438 3.1875 -21.078125 C 3.238281 -21.265625 3.296875 -21.40625 3.359375 -21.5 C 3.429688 -21.601562 3.519531 -21.679688 3.625 -21.734375 C 3.738281 -21.796875 3.878906 -21.847656 4.046875 -21.890625 C 4.222656 -21.941406 4.4375 -22.007812 4.6875 -22.09375 C 4.882812 -22.15625 5.160156 -22.222656 5.515625 -22.296875 C 5.878906 -22.378906 6.289062 -22.457031 6.75 -22.53125 C 7.21875 -22.613281 7.722656 -22.691406 8.265625 -22.765625 C 8.804688 -22.835938 9.351562 -22.898438 9.90625 -22.953125 C 10.46875 -23.015625 11.019531 -23.0625 11.5625 -23.09375 C 12.101562 -23.132812 12.613281 -23.15625 13.09375 -23.15625 C 14.28125 -23.15625 15.40625 -23.046875 16.46875 -22.828125 C 17.53125 -22.609375 18.460938 -22.234375 19.265625 -21.703125 C 20.066406 -21.179688 20.703125 -20.472656 21.171875 -19.578125 C 21.648438 -18.691406 21.890625 -17.578125 21.890625 -16.234375 Z M 10.46875 -11.546875 C 10.46875 -11.429688 10.488281 -11.328125 10.53125 -11.234375 C 10.570312 -11.148438 10.6875 -11.109375 10.875 -11.109375 C 11.164062 -11.109375 11.507812 -11.171875 11.90625 -11.296875 C 12.3125 -11.429688 12.710938 -11.628906 13.109375 -11.890625 C 13.515625 -12.148438 13.890625 -12.472656 14.234375 -12.859375 C 14.578125 -13.242188 14.835938 -13.695312 15.015625 -14.21875 C 15.085938 -14.425781 15.144531 -14.691406 15.1875 -15.015625 C 15.238281 -15.335938 15.265625 -15.71875 15.265625 -16.15625 C 15.265625 -16.882812 15.007812 -17.421875 14.5 -17.765625 C 14 -18.109375 13.34375 -18.28125 12.53125 -18.28125 C 12.394531 -18.28125 12.238281 -18.269531 12.0625 -18.25 C 11.894531 -18.238281 11.734375 -18.210938 11.578125 -18.171875 C 11.429688 -18.128906 11.304688 -18.078125 11.203125 -18.015625 C 11.097656 -17.960938 11.039062 -17.890625 11.03125 -17.796875 L 11 -17.453125 C 10.988281 -17.316406 10.96875 -17.09375 10.9375 -16.78125 C 10.90625 -16.476562 10.867188 -16.128906 10.828125 -15.734375 C 10.796875 -15.335938 10.757812 -14.921875 10.71875 -14.484375 C 10.6875 -14.046875 10.648438 -13.628906 10.609375 -13.234375 C 10.578125 -12.835938 10.546875 -12.488281 10.515625 -12.1875 C 10.492188 -11.882812 10.476562 -11.671875 10.46875 -11.546875 Z M 10.46875 -11.546875 "/></g></g></g><g fill="#ffffff" fill-opacity="1"><g transform="translate(59.916993, 42.950002)"><g><path d="M 21.046875 -8.921875 C 21.023438 -8.835938 20.992188 -8.71875 20.953125 -8.5625 C 20.921875 -8.40625 20.882812 -8.222656 20.84375 -8.015625 C 20.8125 -7.816406 20.769531 -7.597656 20.71875 -7.359375 C 20.675781 -7.117188 20.632812 -6.882812 20.59375 -6.65625 L 20.234375 -4.875 C 20.203125 -4.71875 20.160156 -4.597656 20.109375 -4.515625 C 20.054688 -4.441406 19.9375 -4.390625 19.75 -4.359375 C 19.570312 -4.328125 19.304688 -4.3125 18.953125 -4.3125 C 18.597656 -4.3125 18.101562 -4.3125 17.46875 -4.3125 L 17.1875 -1.453125 C 17.175781 -1.359375 17.15625 -1.265625 17.125 -1.171875 C 17.09375 -1.078125 17.023438 -1.007812 16.921875 -0.96875 C 16.847656 -0.9375 16.675781 -0.867188 16.40625 -0.765625 C 16.144531 -0.660156 15.832031 -0.539062 15.46875 -0.40625 C 15.101562 -0.269531 14.710938 -0.128906 14.296875 0.015625 C 13.878906 0.171875 13.484375 0.3125 13.109375 0.4375 C 12.734375 0.5625 12.398438 0.664062 12.109375 0.75 C 11.816406 0.832031 11.617188 0.875 11.515625 0.875 C 11.367188 0.875 11.238281 0.832031 11.125 0.75 C 11.019531 0.675781 10.96875 0.53125 10.96875 0.3125 C 10.96875 -0.1875 10.988281 -0.816406 11.03125 -1.578125 C 11.082031 -2.347656 11.148438 -3.238281 11.234375 -4.25 C 10.347656 -4.238281 9.472656 -4.226562 8.609375 -4.21875 C 7.742188 -4.207031 6.9375 -4.195312 6.1875 -4.1875 C 5.445312 -4.1875 4.796875 -4.1875 4.234375 -4.1875 C 3.671875 -4.1875 3.25 -4.1875 2.96875 -4.1875 C 2.050781 -4.1875 1.390625 -4.21875 0.984375 -4.28125 C 0.578125 -4.34375 0.375 -4.488281 0.375 -4.71875 C 0.375 -4.84375 0.425781 -4.988281 0.53125 -5.15625 C 0.625 -5.3125 0.796875 -5.597656 1.046875 -6.015625 C 1.296875 -6.429688 1.59375 -6.925781 1.9375 -7.5 C 2.289062 -8.082031 2.671875 -8.710938 3.078125 -9.390625 C 3.492188 -10.078125 3.910156 -10.765625 4.328125 -11.453125 L 7.578125 -16.8125 C 7.972656 -17.46875 8.320312 -18.109375 8.625 -18.734375 C 8.9375 -19.367188 9.273438 -19.945312 9.640625 -20.46875 C 10.015625 -20.988281 10.457031 -21.441406 10.96875 -21.828125 C 11.488281 -22.210938 12.164062 -22.488281 13 -22.65625 L 17.9375 -23.953125 C 18.09375 -23.992188 18.234375 -24.015625 18.359375 -24.015625 C 18.472656 -24.015625 18.5625 -23.976562 18.625 -23.90625 C 18.695312 -23.84375 18.734375 -23.710938 18.734375 -23.515625 L 18.734375 -23.34375 C 18.691406 -22.375 18.648438 -21.5 18.609375 -20.71875 C 18.566406 -19.9375 18.523438 -19.195312 18.484375 -18.5 C 18.441406 -17.800781 18.394531 -17.125 18.34375 -16.46875 C 18.300781 -15.820312 18.257812 -15.148438 18.21875 -14.453125 C 18.175781 -13.753906 18.132812 -13.007812 18.09375 -12.21875 C 18.050781 -11.4375 18.007812 -10.5625 17.96875 -9.59375 C 18.664062 -9.613281 19.238281 -9.628906 19.6875 -9.640625 C 20.144531 -9.648438 20.414062 -9.65625 20.5 -9.65625 C 20.625 -9.632812 20.75 -9.585938 20.875 -9.515625 C 21 -9.453125 21.0625 -9.3125 21.0625 -9.09375 C 21.0625 -9.007812 21.054688 -8.953125 21.046875 -8.921875 Z M 11.671875 -9.390625 C 11.796875 -10.109375 11.90625 -10.863281 12 -11.65625 C 12.09375 -12.457031 12.171875 -13.269531 12.234375 -14.09375 C 12.296875 -14.914062 12.347656 -15.734375 12.390625 -16.546875 C 12.441406 -17.359375 12.484375 -18.144531 12.515625 -18.90625 L 6.828125 -9.390625 Z M 11.671875 -9.390625 "/></g></g></g><g fill="#ffffff" fill-opacity="1"><g transform="translate(11.944336, 75.549996)"><g><path d="M 22.453125 -23 C 22.503906 -23.007812 22.550781 -23.015625 22.59375 -23.015625 C 22.644531 -23.023438 22.691406 -23.03125 22.734375 -23.03125 C 22.921875 -23.03125 23.070312 -22.96875 23.1875 -22.84375 C 23.300781 -22.726562 23.378906 -22.519531 23.421875 -22.21875 C 23.441406 -22.03125 23.472656 -21.765625 23.515625 -21.421875 C 23.566406 -21.085938 23.617188 -20.710938 23.671875 -20.296875 C 23.734375 -19.890625 23.796875 -19.46875 23.859375 -19.03125 C 23.929688 -18.59375 23.992188 -18.1875 24.046875 -17.8125 C 24.097656 -17.445312 24.144531 -17.128906 24.1875 -16.859375 C 24.226562 -16.597656 24.253906 -16.429688 24.265625 -16.359375 C 24.492188 -14.515625 24.695312 -13.035156 24.875 -11.921875 C 25.050781 -10.804688 25.175781 -9.984375 25.25 -9.453125 L 26.296875 -1 L 26.140625 -0.515625 C 26.117188 -0.441406 25.984375 -0.351562 25.734375 -0.25 C 25.484375 -0.144531 25.179688 -0.0351562 24.828125 0.078125 C 24.472656 0.203125 24.085938 0.320312 23.671875 0.4375 C 23.253906 0.550781 22.867188 0.65625 22.515625 0.75 C 22.160156 0.84375 21.859375 0.914062 21.609375 0.96875 C 21.367188 1.03125 21.242188 1.0625 21.234375 1.0625 C 20.984375 1.0625 20.785156 0.878906 20.640625 0.515625 C 20.492188 0.148438 20.375 -0.3125 20.28125 -0.875 C 20.1875 -1.4375 20.109375 -2.050781 20.046875 -2.71875 C 19.992188 -3.382812 19.929688 -4.023438 19.859375 -4.640625 C 19.796875 -5.148438 19.738281 -5.664062 19.6875 -6.1875 C 19.632812 -6.707031 19.578125 -7.238281 19.515625 -7.78125 L 18.90625 -12.34375 L 13.109375 -1.734375 C 12.929688 -1.484375 12.753906 -1.300781 12.578125 -1.1875 C 12.398438 -1.082031 12.234375 -1.03125 12.078125 -1.03125 C 11.847656 -1.03125 11.664062 -1.097656 11.53125 -1.234375 C 11.40625 -1.367188 11.316406 -1.535156 11.265625 -1.734375 C 11.066406 -2.390625 10.894531 -2.941406 10.75 -3.390625 C 10.613281 -3.847656 10.484375 -4.265625 10.359375 -4.640625 C 10.242188 -5.015625 10.132812 -5.378906 10.03125 -5.734375 C 9.925781 -6.085938 9.804688 -6.492188 9.671875 -6.953125 C 9.546875 -7.421875 9.398438 -7.96875 9.234375 -8.59375 C 9.078125 -9.226562 8.882812 -10.003906 8.65625 -10.921875 L 8.171875 -8.671875 L 5.921875 0.875 C 5.890625 1 5.757812 1.0625 5.53125 1.0625 C 5.3125 1.0625 5.007812 1.019531 4.625 0.9375 C 4.25 0.851562 3.851562 0.75 3.4375 0.625 C 3.03125 0.507812 2.628906 0.382812 2.234375 0.25 C 1.847656 0.125 1.539062 0.0078125 1.3125 -0.09375 C 1.257812 -0.113281 1.191406 -0.160156 1.109375 -0.234375 C 1.035156 -0.316406 1 -0.441406 1 -0.609375 C 1 -0.648438 1.015625 -0.738281 1.046875 -0.875 C 1.078125 -1.007812 1.113281 -1.164062 1.15625 -1.34375 C 1.207031 -1.53125 1.257812 -1.71875 1.3125 -1.90625 C 1.375 -2.09375 1.429688 -2.257812 1.484375 -2.40625 C 1.617188 -2.757812 1.738281 -3.175781 1.84375 -3.65625 C 1.957031 -4.132812 2.0625 -4.617188 2.15625 -5.109375 C 2.25 -5.597656 2.332031 -6.066406 2.40625 -6.515625 C 2.488281 -6.960938 2.566406 -7.335938 2.640625 -7.640625 L 4.5625 -16.609375 L 5.140625 -19.140625 C 5.210938 -19.460938 5.28125 -19.773438 5.34375 -20.078125 C 5.414062 -20.390625 5.476562 -20.671875 5.53125 -20.921875 C 5.582031 -21.171875 5.625 -21.375 5.65625 -21.53125 C 5.6875 -21.6875 5.703125 -21.773438 5.703125 -21.796875 L 9.609375 -23 C 9.753906 -23 9.878906 -22.984375 9.984375 -22.953125 C 10.097656 -22.929688 10.171875 -22.847656 10.203125 -22.703125 L 13.3125 -12.703125 L 17.578125 -21.6875 Z M 22.453125 -23 "/></g></g></g><g fill="#ffffff" fill-opacity="1"><g transform="translate(38.953364, 75.549996)"><g><path d="M 21.890625 -16.234375 C 21.878906 -15.335938 21.789062 -14.535156 21.625 -13.828125 C 21.46875 -13.117188 21.238281 -12.476562 20.9375 -11.90625 C 20.644531 -11.34375 20.285156 -10.832031 19.859375 -10.375 C 19.441406 -9.925781 18.960938 -9.503906 18.421875 -9.109375 C 17.378906 -8.359375 16.238281 -7.789062 15 -7.40625 C 13.757812 -7.03125 12.515625 -6.84375 11.265625 -6.84375 C 11.054688 -6.84375 10.847656 -6.847656 10.640625 -6.859375 C 10.441406 -6.867188 10.238281 -6.882812 10.03125 -6.90625 L 9.515625 -1.203125 L 9.25 -0.71875 C 9.226562 -0.675781 9.050781 -0.59375 8.71875 -0.46875 C 8.382812 -0.34375 7.96875 -0.195312 7.46875 -0.03125 L 6.484375 0.296875 C 6.171875 0.410156 5.894531 0.515625 5.65625 0.609375 C 5.414062 0.703125 5.191406 0.785156 4.984375 0.859375 C 4.773438 0.929688 4.570312 0.984375 4.375 1.015625 C 4.175781 1.054688 3.96875 1.078125 3.75 1.078125 C 3.601562 1.078125 3.488281 1.039062 3.40625 0.96875 C 3.320312 0.894531 3.28125 0.753906 3.28125 0.546875 L 3.453125 -2.125 C 3.484375 -2.65625 3.519531 -3.1875 3.5625 -3.71875 C 3.613281 -4.257812 3.660156 -4.875 3.703125 -5.5625 L 4 -9.296875 C 4.0625 -10.054688 4.117188 -10.816406 4.171875 -11.578125 C 4.222656 -12.335938 4.273438 -13.0625 4.328125 -13.75 C 4.378906 -14.4375 4.425781 -15.078125 4.46875 -15.671875 C 4.507812 -16.273438 4.546875 -16.800781 4.578125 -17.25 C 4.015625 -17.125 3.5625 -17.03125 3.21875 -16.96875 C 2.882812 -16.914062 2.628906 -16.890625 2.453125 -16.890625 C 2.234375 -16.890625 2.125 -16.984375 2.125 -17.171875 C 2.269531 -17.679688 2.40625 -18.179688 2.53125 -18.671875 C 2.644531 -19.085938 2.757812 -19.515625 2.875 -19.953125 C 3 -20.398438 3.101562 -20.773438 3.1875 -21.078125 C 3.238281 -21.265625 3.296875 -21.40625 3.359375 -21.5 C 3.429688 -21.601562 3.519531 -21.679688 3.625 -21.734375 C 3.738281 -21.796875 3.878906 -21.847656 4.046875 -21.890625 C 4.222656 -21.941406 4.4375 -22.007812 4.6875 -22.09375 C 4.882812 -22.15625 5.160156 -22.222656 5.515625 -22.296875 C 5.878906 -22.378906 6.289062 -22.457031 6.75 -22.53125 C 7.21875 -22.613281 7.722656 -22.691406 8.265625 -22.765625 C 8.804688 -22.835938 9.351562 -22.898438 9.90625 -22.953125 C 10.46875 -23.015625 11.019531 -23.0625 11.5625 -23.09375 C 12.101562 -23.132812 12.613281 -23.15625 13.09375 -23.15625 C 14.28125 -23.15625 15.40625 -23.046875 16.46875 -22.828125 C 17.53125 -22.609375 18.460938 -22.234375 19.265625 -21.703125 C 20.066406 -21.179688 20.703125 -20.472656 21.171875 -19.578125 C 21.648438 -18.691406 21.890625 -17.578125 21.890625 -16.234375 Z M 10.46875 -11.546875 C 10.46875 -11.429688 10.488281 -11.328125 10.53125 -11.234375 C 10.570312 -11.148438 10.6875 -11.109375 10.875 -11.109375 C 11.164062 -11.109375 11.507812 -11.171875 11.90625 -11.296875 C 12.3125 -11.429688 12.710938 -11.628906 13.109375 -11.890625 C 13.515625 -12.148438 13.890625 -12.472656 14.234375 -12.859375 C 14.578125 -13.242188 14.835938 -13.695312 15.015625 -14.21875 C 15.085938 -14.425781 15.144531 -14.691406 15.1875 -15.015625 C 15.238281 -15.335938 15.265625 -15.71875 15.265625 -16.15625 C 15.265625 -16.882812 15.007812 -17.421875 14.5 -17.765625 C 14 -18.109375 13.34375 -18.28125 12.53125 -18.28125 C 12.394531 -18.28125 12.238281 -18.269531 12.0625 -18.25 C 11.894531 -18.238281 11.734375 -18.210938 11.578125 -18.171875 C 11.429688 -18.128906 11.304688 -18.078125 11.203125 -18.015625 C 11.097656 -17.960938 11.039062 -17.890625 11.03125 -17.796875 L 11 -17.453125 C 10.988281 -17.316406 10.96875 -17.09375 10.9375 -16.78125 C 10.90625 -16.476562 10.867188 -16.128906 10.828125 -15.734375 C 10.796875 -15.335938 10.757812 -14.921875 10.71875 -14.484375 C 10.6875 -14.046875 10.648438 -13.628906 10.609375 -13.234375 C 10.578125 -12.835938 10.546875 -12.488281 10.515625 -12.1875 C 10.492188 -11.882812 10.476562 -11.671875 10.46875 -11.546875 Z M 10.46875 -11.546875 "/></g></g></g><g fill="#ffffff" fill-opacity="1"><g transform="translate(59.916993, 75.549996)"><g><path d="M 10.15625 0.75 C 9.9375 0.769531 9.722656 0.785156 9.515625 0.796875 C 9.304688 0.804688 9.101562 0.8125 8.90625 0.8125 C 8.320312 0.8125 7.769531 0.773438 7.25 0.703125 C 6.738281 0.628906 6.234375 0.519531 5.734375 0.375 C 5.234375 0.238281 4.722656 0.0703125 4.203125 -0.125 C 3.691406 -0.332031 3.140625 -0.5625 2.546875 -0.8125 C 2.410156 -0.84375 2.304688 -0.90625 2.234375 -1 C 2.171875 -1.101562 2.125 -1.21875 2.09375 -1.34375 C 2.070312 -1.46875 2.054688 -1.59375 2.046875 -1.71875 C 2.046875 -1.851562 2.039062 -1.96875 2.03125 -2.0625 C 2.007812 -2.195312 1.976562 -2.429688 1.9375 -2.765625 C 1.894531 -3.109375 1.847656 -3.46875 1.796875 -3.84375 C 1.742188 -4.21875 1.691406 -4.570312 1.640625 -4.90625 C 1.585938 -5.25 1.546875 -5.484375 1.515625 -5.609375 C 1.503906 -5.628906 1.5 -5.671875 1.5 -5.734375 C 1.5 -5.878906 1.550781 -5.992188 1.65625 -6.078125 C 1.769531 -6.171875 1.882812 -6.21875 2 -6.21875 C 2.050781 -6.21875 2.097656 -6.207031 2.140625 -6.1875 C 2.503906 -5.957031 2.878906 -5.71875 3.265625 -5.46875 C 3.648438 -5.21875 4.0625 -4.988281 4.5 -4.78125 C 4.9375 -4.582031 5.40625 -4.414062 5.90625 -4.28125 C 6.40625 -4.144531 6.960938 -4.078125 7.578125 -4.078125 C 8.359375 -4.078125 8.945312 -4.238281 9.34375 -4.5625 C 9.738281 -4.894531 9.9375 -5.457031 9.9375 -6.25 C 9.9375 -6.5 9.910156 -6.773438 9.859375 -7.078125 C 9.804688 -7.390625 9.695312 -7.675781 9.53125 -7.9375 C 9.375 -8.207031 9.140625 -8.429688 8.828125 -8.609375 C 8.515625 -8.796875 8.101562 -8.890625 7.59375 -8.890625 L 4.78125 -8.890625 C 4.78125 -8.941406 4.796875 -9.085938 4.828125 -9.328125 C 4.859375 -9.566406 4.894531 -9.851562 4.9375 -10.1875 C 4.988281 -10.53125 5.039062 -10.890625 5.09375 -11.265625 C 5.144531 -11.648438 5.191406 -12.003906 5.234375 -12.328125 C 5.285156 -12.660156 5.328125 -12.941406 5.359375 -13.171875 C 5.398438 -13.398438 5.425781 -13.523438 5.4375 -13.546875 C 5.5 -13.878906 5.5625 -14.101562 5.625 -14.21875 C 5.695312 -14.34375 5.765625 -14.40625 5.828125 -14.40625 C 6.015625 -14.332031 6.207031 -14.285156 6.40625 -14.265625 C 6.601562 -14.253906 6.800781 -14.25 7 -14.25 C 7.71875 -14.25 8.28125 -14.441406 8.6875 -14.828125 C 9.09375 -15.210938 9.296875 -15.773438 9.296875 -16.515625 C 9.296875 -16.765625 9.257812 -17.007812 9.1875 -17.25 C 9.113281 -17.488281 8.992188 -17.695312 8.828125 -17.875 C 8.671875 -18.0625 8.46875 -18.210938 8.21875 -18.328125 C 7.976562 -18.441406 7.6875 -18.5 7.34375 -18.5 C 6.96875 -18.5 6.582031 -18.472656 6.1875 -18.421875 C 5.800781 -18.378906 5.414062 -18.316406 5.03125 -18.234375 C 4.65625 -18.160156 4.289062 -18.078125 3.9375 -17.984375 C 3.582031 -17.890625 3.257812 -17.796875 2.96875 -17.703125 C 3 -17.890625 3.015625 -18.148438 3.015625 -18.484375 C 3.015625 -18.628906 3.007812 -18.785156 3 -18.953125 C 3 -19.117188 3 -19.289062 3 -19.46875 C 3 -19.789062 3.007812 -20.117188 3.03125 -20.453125 C 3.050781 -20.785156 3.097656 -21.09375 3.171875 -21.375 C 3.242188 -21.65625 3.347656 -21.898438 3.484375 -22.109375 C 3.617188 -22.316406 3.804688 -22.457031 4.046875 -22.53125 C 4.628906 -22.71875 5.128906 -22.863281 5.546875 -22.96875 C 5.972656 -23.070312 6.367188 -23.148438 6.734375 -23.203125 C 7.097656 -23.253906 7.460938 -23.285156 7.828125 -23.296875 C 8.191406 -23.316406 8.609375 -23.328125 9.078125 -23.328125 C 9.929688 -23.328125 10.796875 -23.210938 11.671875 -22.984375 C 12.554688 -22.753906 13.351562 -22.398438 14.0625 -21.921875 C 14.78125 -21.441406 15.363281 -20.832031 15.8125 -20.09375 C 16.269531 -19.363281 16.5 -18.492188 16.5 -17.484375 C 16.5 -16.828125 16.40625 -16.226562 16.21875 -15.6875 C 16.039062 -15.144531 15.8125 -14.660156 15.53125 -14.234375 C 15.25 -13.804688 14.945312 -13.429688 14.625 -13.109375 C 14.300781 -12.796875 14 -12.53125 13.71875 -12.3125 C 14.03125 -12.132812 14.367188 -11.898438 14.734375 -11.609375 C 15.097656 -11.328125 15.429688 -10.957031 15.734375 -10.5 C 16.046875 -10.050781 16.300781 -9.515625 16.5 -8.890625 C 16.707031 -8.265625 16.8125 -7.53125 16.8125 -6.6875 C 16.8125 -5.800781 16.640625 -4.929688 16.296875 -4.078125 C 15.960938 -3.222656 15.5 -2.453125 14.90625 -1.765625 C 14.3125 -1.078125 13.609375 -0.503906 12.796875 -0.046875 C 11.984375 0.398438 11.101562 0.664062 10.15625 0.75 Z M 10.15625 0.75 "/></g></g></g></svg>